<svg width="350" height="350" viewBox="0 0 350 350" fill="none" xmlns="http://www.w3.org/2000/svg">
<rect width="350" height="350" rx="175" fill="#E5E5E5"/>
<path fill-rule="evenodd" clip-rule="evenodd" d="M157.5 161C157.5 159.067 159.067 157.5 161 157.5H189C190.933 157.5 192.5 159.067 192.5 161V185V189C192.5 190.933 190.933 192.5 189 192.5H161C159.067 192.5 157.5 190.933 157.5 189V179V161ZM189.5 161V181.379L182.061 173.939C181.475 173.354 180.525 173.354 179.939 173.939L177 176.879L169.061 168.939C168.475 168.354 167.525 168.354 166.939 168.939L160.5 175.379V161C160.5 160.724 160.724 160.5 161 160.5H189C189.276 160.5 189.5 160.724 189.5 161ZM168 172.121L160.5 179.621V189C160.5 189.276 160.724 189.5 161 189.5H189C189.276 189.5 189.5 189.276 189.5 189V185.621L181 177.121L178.061 180.061C177.475 180.646 176.525 180.646 175.939 180.061L168 172.121ZM181 171C183.209 171 185 169.209 185 167C185 164.791 183.209 163 181 163C178.791 163 177 164.791 177 167C177 169.209 178.791 171 181 171Z" fill="#7B7F8C"/>
</svg>
