<svg width="500" height="179" viewBox="0 0 500 179" fill="none" xmlns="http://www.w3.org/2000/svg">
<rect width="500" height="179" rx="7" fill="#E5E5E5"/>
<path fill-rule="evenodd" clip-rule="evenodd" d="M232.5 76C232.5 74.067 234.067 72.5 236 72.5H264C265.933 72.5 267.5 74.067 267.5 76V100V104C267.5 105.933 265.933 107.5 264 107.5H236C234.067 107.5 232.5 105.933 232.5 104V94V76ZM264.5 76V96.3787L257.061 88.9393C256.475 88.3536 255.525 88.3536 254.939 88.9393L252 91.8787L244.061 83.9393C243.475 83.3536 242.525 83.3536 241.939 83.9393L235.5 90.3787V76C235.5 75.7239 235.724 75.5 236 75.5H264C264.276 75.5 264.5 75.7239 264.5 76ZM243 87.1213L235.5 94.6213V104C235.5 104.276 235.724 104.5 236 104.5H264C264.276 104.5 264.5 104.276 264.5 104V100.621L256 92.1213L253.061 95.0607C252.475 95.6464 251.525 95.6464 250.939 95.0607L243 87.1213ZM256 86C258.209 86 260 84.2091 260 82C260 79.7909 258.209 78 256 78C253.791 78 252 79.7909 252 82C252 84.2091 253.791 86 256 86Z" fill="#7B7F8C"/>
</svg>
